<?xml version="1.0" standalone="no"?>
<!DOCTYPE svg PUBLIC "-//W3C//DTD SVG 20010904//EN"
 "http://www.w3.org/TR/2001/REC-SVG-20010904/DTD/svg10.dtd">
<svg version="1.0" xmlns="http://www.w3.org/2000/svg"
 width="310.000000pt" height="310.000000pt" viewBox="0 0 310.000000 310.000000"
 preserveAspectRatio="xMidYMid meet">
<metadata>
Created by potrace 1.11, written by Peter Selinger 2001-2013
</metadata>
<g transform="translate(0.000000,310.000000) scale(0.100000,-0.100000)"
fill="#000000" stroke="none">
<path d="M1502 2996 c-30 -16 -64 -50 -74 -76 -5 -14 -9 -85 -9 -157 l1 -133
-52 0 c-47 1 -58 5 -97 40 -74 65 -98 73 -241 72 -137 0 -261 -15 -316 -38
-44 -18 -80 -73 -98 -151 -16 -72 -25 -64 104 -88 14 -3 74 -14 134 -25 61
-11 114 -20 120 -20 26 0 -9 -12 -75 -26 -41 -9 -83 -18 -94 -20 -11 -3 -39
-8 -63 -13 -24 -5 -45 -11 -48 -14 -3 -3 13 -18 35 -33 41 -26 43 -27 233 -29
206 -2 220 1 281 51 24 21 39 24 103 24 l74 0 0 -89 0 -90 158 2 157 2 0 85 0
85 208 -1 c188 -1 209 -3 229 -20 42 -38 56 -72 48 -116 -15 -81 18 -76 -593
-76 -581 0 -582 0 -684 -52 -137 -71 -211 -180 -218 -322 -10 -172 75 -317
229 -389 61 -29 61 -29 263 -29 l202 0 3 -87 3 -88 153 0 c83 -1 153 2 153 5
1 3 2 41 3 85 l1 80 136 3 c151 3 165 -2 193 -69 12 -29 12 -40 0 -74 -7 -22
-24 -49 -37 -61 -23 -20 -34 -21 -238 -19 -118 2 -305 4 -416 5 l-203 2 -57
-27 c-36 -18 -84 -55 -128 -99 -57 -58 -74 -83 -93 -136 -29 -85 -29 -161 2
-244 37 -103 116 -195 214 -250 31 -17 59 -21 175 -24 l137 -4 0 -67 c0 -82
22 -121 87 -155 65 -33 146 -15 189 41 23 30 28 49 32 113 l4 76 31 2 c75 6
148 70 198 176 32 67 35 86 17 87 -7 0 -65 1 -128 2 l-115 2 -3 88 -3 87 -37
1 c-51 1 -200 1 -242 0 l-35 -1 2 -85 2 -85 -106 0 -105 0 -34 34 c-29 29 -34
41 -34 83 0 39 5 54 23 70 33 31 75 36 262 34 94 -2 276 -4 405 -4 l235 -2 55
27 c78 38 145 109 188 198 32 68 36 83 36 160 1 130 -42 229 -142 326 -75 73
-94 79 -293 82 l-175 4 0 84 1 84 -155 -2 -155 -3 -3 -82 -3 -83 -185 0 c-183
0 -185 0 -208 25 -16 17 -23 38 -25 73 -2 59 24 99 72 107 18 2 275 7 572 9
404 3 552 7 588 17 26 7 47 16 47 20 0 4 10 9 23 13 13 3 46 28 74 56 85 84
122 183 118 317 -2 64 -8 91 -31 138 -35 72 -107 146 -177 182 -58 30 -86 32
-392 33 l-161 0 1 127 c0 136 -9 182 -46 213 -41 36 -142 50 -187 26z m-644
-365 c33 -20 11 -81 -29 -81 -28 0 -53 44 -39 69 11 21 45 27 68 12z"/>
</g>
</svg>
